# xmcd
#
# Track frame offsets: 
#        150
#        18865
#        34059
#        51085
#        70927
#        89281
#        105826
#        126867
#        140276
#        156759
#        171535
#        190447
#        210357
#        234478
#
# Disc length: 3515 seconds
#
# Revision: 0
# Processed by: cddbd v1.5.2PL0 Copyright (c) Steve Scherf et al.
# Submitted via: ExactAudioCopy v0.99pb5
#
DISCID=b60db90e
DTITLE=Carroll Brown - Sweet Savannah Nights
DYEAR=2011
DGENRE=Country
TTITLE0=Heart Like The Morning
TTITLE1=Everything Is Different Now
TTITLE2=Isolene
TTITLE3=Sweet Savannah Nights
TTITLE4=Sally B Goode
TTITLE5=You Look Just Like
TTITLE6=Love is a Slow Dance
TTITLE7=Barnacle Bill and Betty
TTITLE8=Tell Mama I Tried
TTITLE9=She's Different Every Day
TTITLE10=Dusty Bend
TTITLE11=Coal Black Diesel Wind
TTITLE12=Marsha's Song
TTITLE13=Sweet Savannah Nights (Reprise) +
EXTD=
EXTT0=
EXTT1=
EXTT2=
EXTT3=
EXTT4=
EXTT5=
EXTT6=
EXTT7=
EXTT8=
EXTT9=
EXTT10=
EXTT11=
EXTT12=
EXTT13=
PLAYORDER=
